PathFileType	4	(X/Y/Z)	s05c0202.trc
DataRate	CameraRate	NumFrames	NumMarkers	Units	OrigDataRate	OrigDataStartFrame	OrigNumFrames
200	200	5	49	mm	200	1000	2000
Frame#	Time	racr			lacr			c7			jug			rlel			rdr			llel			ldr			s2			lic			ric			lasi			rasi			rpsi			lpsi			rgt			lgt			rth1			rth2			rth3			rth4			rlfc			rsh1			rsh2			rsh3			rsh4			rlmal			rmmal			rcal			rtoe			rmt5			lth1			lth2			lth4			lth3			llfc			lmfc			lsh1			lsh2			lsh3			lsh4			llmal			lmmal			lcal			ltoe			lmt5			SBIKE			LBIKE			RBIKE			
		X1	Y1	Z1	X2	Y2	Z2	X3	Y3	Z3	X4	Y4	Z4	X5	Y5	Z5	X6	Y6	Z6	X7	Y7	Z7	X8	Y8	Z8	X9	Y9	Z9	X10	Y10	Z10	X11	Y11	Z11	X12	Y12	Z12	X13	Y13	Z13	X14	Y14	Z14	X15	Y15	Z15	X16	Y16	Z16	X17	Y17	Z17	X18	Y18	Z18	X19	Y19	Z19	X20	Y20	Z20	X21	Y21	Z21	X22	Y22	Z22	X23	Y23	Z23	X24	Y24	Z24	X25	Y25	Z25	X26	Y26	Z26	X27	Y27	Z27	X28	Y28	Z28	X29	Y29	Z29	X30	Y30	Z30	X31	Y31	Z31	X32	Y32	Z32	X33	Y33	Z33	X34	Y34	Z34	X35	Y35	Z35	X36	Y36	Z36	X37	Y37	Z37	X38	Y38	Z38	X39	Y39	Z39	X40	Y40	Z40	X41	Y41	Z41	X42	Y42	Z42	X43	Y43	Z43	X44	Y44	Z44	X45	Y45	Z45	X46	Y46	Z46	X47	Y47	Z47	X48	Y48	Z48	X49	Y49	Z49	
1000	5.0000	514.489610	1229.599546	-125.076459	527.629182	1226.807803	-368.974490	496.675166	1313.023700	-251.726946	429.326759	1165.377059	-252.066694	468.080482	1024.112454	63.999768	660.127872	961.623817	-62.879518	452.242287	1066.398428	-616.179377	657.183839	973.889174	-502.771806	-94.003518	1202.418552	-287.064556	60.394129	1187.275285	-429.249251	45.135048	1213.962268	-148.036852	90.625893	1127.270908	-386.856939	87.314599	1153.435416	-172.894246	-55.049722	1249.605911	-252.297095	-49.104667	1245.109388	-337.381217	13.760226	1114.130859	-111.849563	-29.948801	1090.604017	-450.013788	118.220445	1067.634680	-111.281652	206.631620	1057.445524	-119.374911	276.159960	1003.835217	-124.520289	217.690120	1088.765489	-136.569625	407.661507	934.130268	-160.482983	331.682007	859.341806	-132.652764	305.471205	774.538175	-134.712768	243.885304	715.546698	-131.443764	332.071902	758.159116	-157.516300	177.208566	590.012731	-128.081474	195.950336	611.554077	-208.509988	101.090583	567.621539	-171.286477	385.243405	487.765065	-160.658896	281.216111	487.742183	-96.286620	40.303040	961.279965	-467.805978	103.287788	903.014205	-467.073616	134.841317	920.707237	-457.347418	128.445157	815.954850	-464.474163	194.277014	684.926053	-434.417065	183.509046	675.813184	-325.294376	130.100824	575.224222	-458.892158	122.745654	489.120199	-446.531796	71.157510	416.457330	-442.559536	152.423140	480.834173	-423.236361	41.285655	305.796798	-432.988433	73.578607	322.047284	-360.786965	-25.133221	287.683387	-389.024765	235.252162	150.031009	-403.609635	124.424855	170.033076	-463.141565	-220.423451	910.292656	-275.565786	-53.567103	79.234900	-474.925235	-53.541865	79.309683	-77.402176	
1001	5.0050	513.676016	1229.176913	-124.117137	527.191187	1225.243411	-367.562071	496.206159	1312.337673	-250.824310	428.688237	1164.541625	-250.687832	466.264986	1023.974223	64.546040	659.479412	961.466580	-63.400673	453.005512	1066.743208	-616.323644	657.407621	973.926777	-502.464160	-94.628573	1203.172879	-287.258325	59.915732	1187.384261	-429.509613	44.283191	1215.040819	-148.428445	89.928958	1127.315105	-386.915843	86.546757	1153.939236	-172.970663	-55.191633	1250.460642	-253.030965	-49.320410	1245.837847	-337.921006	13.033007	1114.264335	-112.479626	-29.856686	1091.204893	-450.535330	117.121845	1066.409378	-111.288340	205.505903	1054.457320	-119.438005	274.012198	1000.071682	-124.186998	217.061652	1085.705946	-136.577279	404.582570	928.271890	-160.451580	329.179536	851.375473	-132.317730	304.415137	765.949316	-133.750692	244.071103	705.825846	-130.444948	331.373406	750.328412	-156.590820	180.531585	579.095322	-127.188546	198.383145	601.406230	-207.862444	105.169724	553.401136	-170.201540	392.839866	487.026222	-160.156857	289.045427	481.692376	-95.479072	43.251142	963.042910	-467.711396	107.850863	906.534151	-465.919929	138.623431	925.000931	-455.340945	135.258003	820.160293	-463.329501	202.696552	689.663768	-434.175644	191.213348	680.248110	-325.171367	135.881804	581.286455	-458.854412	125.851705	495.462928	-446.369373	72.184684	424.311537	-442.795802	155.157726	486.282917	-422.838847	38.753339	314.724126	-433.227060	71.597494	329.749100	-360.846172	-28.366317	299.230591	-389.099655	226.297019	151.108148	-403.448077	116.437504	175.604899	-462.927263	-220.406032	910.300958	-275.357604	-53.578259	79.290164	-474.886486	-53.526019	79.283424	-77.375413	
1002	5.0100	512.257386	1229.361841	-122.244554	526.959763	1224.212630	-367.276217	495.729728	1311.780172	-250.111221	428.081185	1163.768754	-249.353321	466.550153	1022.931853	64.465786	658.845666	961.062532	-64.099066	453.890795	1067.152334	-616.397392	657.640816	973.953948	-502.190743	-95.200339	1203.814420	-287.947180	59.595633	1187.356273	-429.839410	43.530608	1215.682819	-148.723212	89.421128	1127.230975	-387.016851	85.707978	1154.222072	-172.703093	-55.394351	1250.718678	-253.478614	-49.332820	1246.323015	-338.639610	12.111367	1114.005835	-113.040924	-29.579515	1091.683560	-451.107818	116.151635	1064.845573	-111.067246	204.156779	1051.211602	-119.129978	271.873624	994.964635	-123.978176	216.383830	1082.070307	-136.400388	400.977559	920.193174	-159.909843	326.430779	842.375295	-131.336073	303.241668	756.359621	-132.737588	244.246479	695.047999	-129.375708	330.344821	741.522546	-155.328693	183.978823	567.237926	-126.239956	200.882819	590.315133	-207.077129	109.540782	538.396655	-169.118369	399.965144	485.397712	-159.515159	296.691669	474.960419	-94.705412	46.581826	964.961033	-467.679048	112.937596	910.569677	-465.538050	142.740109	929.575112	-453.242778	142.548467	824.673080	-462.286324	211.329012	694.635309	-433.849871	199.022474	685.009765	-325.107120	142.127303	587.515108	-458.818424	129.483550	502.013196	-446.334255	73.754448	432.498869	-443.163745	158.301914	492.080411	-422.506091	36.742415	323.781411	-433.630713	70.066671	337.741208	-361.050801	-30.974433	311.114237	-389.366513	217.510792	152.827598	-403.444566	108.787031	181.687882	-462.736037	-220.361061	910.316723	-275.128144	-53.556142	79.423299	-474.928488	-53.524946	79.274854	-77.348390	
1003	5.0150	511.501827	1229.377692	-121.512574	526.608255	1223.057870	-366.302855	495.235510	1311.364926	-249.533324	427.514221	1163.070606	-248.067125	464.902392	1022.912167	64.681213	658.174736	960.789274	-64.773288	454.578011	1067.427946	-616.528100	657.848076	973.957546	-501.878761	-95.707434	1204.013588	-288.555901	59.290198	1186.970586	-430.082717	42.694352	1216.032476	-149.056365	89.089510	1126.934715	-387.155210	84.890496	1154.268709	-172.454825	-55.490312	1250.680887	-254.049363	-49.333169	1246.357769	-339.346234	10.795171	1113.478671	-113.710218	-29.109949	1091.944619	-451.795743	115.073503	1062.498977	-110.743296	202.737863	1047.172440	-118.761442	269.549412	989.163399	-123.787136	215.619854	1077.752292	-136.025544	397.122747	912.002279	-159.338065	323.329237	832.604952	-130.143290	302.023746	746.138767	-131.619923	244.512902	683.390062	-128.085440	329.570549	731.559026	-153.873263	187.800416	554.348047	-125.559902	203.655728	578.575788	-206.325968	113.914989	523.091866	-167.862920	406.454012	482.984418	-158.776331	304.019817	467.406246	-93.704672	50.187517	967.024704	-467.643398	118.088857	914.566846	-464.330790	147.026588	934.252970	-450.938269	150.047029	829.534809	-461.391503	220.145423	699.965766	-433.482164	206.922559	689.755578	-324.867258	148.722510	593.900883	-458.795956	133.496615	508.988491	-446.305812	75.722661	441.017970	-443.637246	161.721629	498.274549	-422.185227	35.114182	333.293048	-434.177459	68.798725	346.255359	-361.257214	-33.108900	323.270339	-389.713065	208.961893	155.055642	-403.320549	101.447942	188.260937	-462.633487	-220.290257	910.359508	-274.939916	-53.546802	79.366395	-474.829077	-53.531305	79.261471	-77.336721	
1004	5.0200	510.847434	1229.601586	-120.767842	526.357993	1222.272797	-365.632036	494.751351	1311.098148	-248.982652	426.995843	1162.459339	-246.833159	463.972434	1022.850323	64.788940	657.451370	960.462937	-65.490397	455.184972	1067.674996	-616.638761	657.992932	973.942165	-501.561601	-96.259656	1203.936698	-289.516123	59.055615	1186.348124	-430.203679	41.893182	1216.100308	-149.307292	88.799561	1126.442019	-387.097387	84.074617	1154.179338	-172.138963	-55.752103	1250.561320	-254.956209	-49.342438	1245.958299	-340.044635	9.342687	1112.464411	-114.223803	-28.469209	1091.946465	-452.557667	113.852484	1059.400139	-110.244512	201.204064	1042.453158	-118.209925	267.026780	982.848931	-123.367084	214.770906	1072.720044	-135.333486	392.987972	903.305772	-158.478635	320.017036	822.099027	-128.736197	300.823344	735.003996	-130.312046	244.905510	670.909065	-126.889404	329.013841	721.291885	-152.876376	191.748561	541.225260	-124.562510	206.797125	566.246654	-205.510942	118.495807	507.647349	-166.606424	413.242338	478.912407	-158.153477	311.221463	459.181219	-92.972903	54.042251	969.285787	-467.541381	123.358857	918.705387	-462.879430	151.410526	939.052171	-448.648229	157.598641	834.647430	-460.325114	228.986239	705.242703	-433.009665	214.719180	694.504218	-324.204602	155.540117	600.494166	-458.799211	137.769504	515.890025	-446.212954	78.097431	449.710350	-444.120712	165.470624	504.512238	-421.794731	33.865713	343.000338	-434.800708	67.804083	355.023419	-361.569932	-34.737845	335.713061	-390.138965	200.600550	158.073225	-403.213644	94.500422	195.357163	-462.472124	-220.208950	910.384046	-274.781141	-53.533132	79.491356	-474.906579	-53.501740	79.241704	-77.327329	
